<?xml version="1.0" encoding="UTF-8"?>
<svg version="1.1" xmlns="http://www.w3.org/2000/svg" width="64" height="64">
<path d="M0 0 C3.1875 2.1875 3.1875 2.1875 5.1875 5.1875 C5.1875 6.5075 5.1875 7.8275 5.1875 9.1875 C6.05375 9.084375 6.92 8.98125 7.8125 8.875 C12.38045145 9.29795847 14.08894653 10.87276838 17.1875 14.1875 C18.30888473 17.85069012 18.44221718 20.56276149 17.1875 24.1875 C14.66805838 23.72093674 13.09346619 23.12481079 10.9375 21.6875 C8.2723556 20.23378487 6.87600825 19.91360349 3.9375 19.625 C2.7 19.480625 1.4625 19.33625 0.1875 19.1875 C-0.3075 18.1975 -0.3075 18.1975 -0.8125 17.1875 C-0.70035156 17.93515625 -0.58820312 18.6828125 -0.47265625 19.453125 C-0.8125 22.1875 -0.8125 22.1875 -3.12109375 24.109375 C-4.15363281 24.71265625 -5.18617187 25.3159375 -6.25 25.9375 C-14.6800764 31.22247115 -21.40273378 37.17623859 -25.8125 46.1875 C-29.00135264 46.6658279 -31.12627028 46.59923783 -33.921875 44.921875 C-36.72293764 42.81596659 -39.3336548 40.6663452 -41.8125 38.1875 C-43.15131567 26.90319648 -38.42094651 15.10191344 -31.6484375 6.21484375 C-23.8577623 -2.38805078 -10.67598281 -5.16071494 0 0 Z M-12.8125 7.1875 C-13.1425 7.8475 -13.4725 8.5075 -13.8125 9.1875 C-12.4925 8.5275 -11.1725 7.8675 -9.8125 7.1875 C-10.8025 7.1875 -11.7925 7.1875 -12.8125 7.1875 Z M-4.8125 7.1875 C-5.1425 8.1775 -5.4725 9.1675 -5.8125 10.1875 C-4.8225 9.8575 -3.8325 9.5275 -2.8125 9.1875 C-2.8125 8.5275 -2.8125 7.8675 -2.8125 7.1875 C-3.4725 7.1875 -4.1325 7.1875 -4.8125 7.1875 Z M-0.8125 12.1875 C0.1875 14.1875 0.1875 14.1875 0.1875 14.1875 Z M0.1875 14.1875 C1.1875 16.1875 1.1875 16.1875 1.1875 16.1875 Z " fill="#FFFFFF" transform="translate(44.8125,10.8125)"/>
<path d="M0 0 C1.32 0 2.64 0 4 0 C2.125 5.75 2.125 5.75 1 8 C1.00867875 10.5689103 1.13102222 13.12186147 1.2578125 15.6875 C1.13019531 16.8321875 1.13019531 16.8321875 1 18 C-2 20 -2 20 -6 20 C-6.91144418 12.10081715 -3.80499489 6.79463373 0 0 Z " fill="#FFFFFF" transform="translate(44,36)"/>
<path d="M0 0 C6.625 -0.125 6.625 -0.125 10 1 C10 1.66 10 2.32 10 3 C7.03 3 4.06 3 1 3 C0.67 2.01 0.34 1.02 0 0 Z " fill="#FFFFFF" transform="translate(46,31)"/>
</svg>
