<svg xmlns="http://www.w3.org/2000/svg" width="64" height="64">
  <!-- Rounded rectangle background -->
  <rect width="64" height="64" rx="10" ry="10" fill="black"/>
  <path d="M44.813 10.813C48 13 48 13 50 16v4l2.625-.312C57.193 20.11 58.901 21.685 62 25c1.121 3.663 1.255 6.375 0 10-2.52-.467-4.094-1.063-6.25-2.5-2.665-1.454-4.061-1.774-7-2.062L45 30l-1-2 .34 2.266C44 33 44 33 41.69 34.922l-3.129 1.828C30.133 42.035 23.41 47.989 19 57c-3.189.478-5.314.412-8.11-1.266C8.09 53.628 5.48 51.48 3 49 1.661 37.716 6.392 25.914 13.164 17.027c7.79-8.603 20.973-11.375 31.649-6.215M32 18l-1 2 4-2zm8 0-1 3 3-1v-2zm4 5 1 2Zm1 2 1 2Z" fill="#FFF"/>
  <path d="M44 36h4c-1.875 5.75-1.875 5.75-3 8 .009 2.569.131 5.122.258 7.688L45 54c-3 2-3 2-7 2-.911-7.9 2.195-13.205 6-20m2-5c6.625-.125 6.625-.125 10 1v2h-9z" fill="#FFF"/>
</svg>
